<svg version="1.1" id="Layer_1" xmlns="http://www.w3.org/2000/svg" xmlns:xlink="http://www.w3.org/1999/xlink" x="0px" y="0px" width="46px" height="46px" viewBox="0 0 46 46" enable-background="new 0 0 46 46" xml:space="preserve"><g><path fill="#d2d2d2" d="M23,44C11.42,44,2,34.58,2,23S11.42,2,23,2c11.579,0,21,9.42,21,21S34.579,44,23,44z"/><path fill="#00000" d="M23,4c10.477,0,19,8.523,19,19s-8.523,19-19,19S4,33.477,4,23S12.523,4,23,4 M23,0C10.297,0,0,10.297,0,23 s10.297,23,23,23c12.702,0,23-10.297,23-23S35.702,0,23,0L23,0z"/></g></svg>